PathFileType	4	(X/Y/Z)	RBDS012\RBDS012runT45.trc
DataRate	CameraRate	NumFrames	NumMarkers	Units	OrigDataRate	OrigDataStartFrame	OrigNumFrames
150.000000	150.000000	6	33	mm	150.000000	2250	4500
Frame#	Time	L.ASIS			L.Heel.Bottom			L.Heel.Lateral			L.Heel.Top			L.Iliac.Crest			L.MT1			L.MT5			L.PSIS			L.Shank.Bottom.Lateral			L.Shank.Bottom.Medial			L.Shank.Top.Lateral			L.Shank.Top.Medial			L.Thigh.Bottom.Lateral			L.Thigh.Bottom.Medial			L.Thigh.Top.Lateral			L.Thigh.Top.Medial			R.ASIS			R.ASY			R.Heel.Bottom			R.Heel.Lateral			R.Heel.Top			R.Iliac.Crest			R.MT1			R.MT5			R.PSIS			R.Shank.Bottom.Lateral			R.Shank.Bottom.Medial			R.Shank.Top.Lateral			R.Shank.Top.Medial			R.Thigh.Bottom.Lateral			R.Thigh.Bottom.Medial			R.Thigh.Top.Lateral			R.Thigh.Top.Medial			
		X1	Y1	Z1	X2	Y2	Z2	X3	Y3	Z3	X4	Y4	Z4	X5	Y5	Z5	X6	Y6	Z6	X7	Y7	Z7	X8	Y8	Z8	X9	Y9	Z9	X10	Y10	Z10	X11	Y11	Z11	X12	Y12	Z12	X13	Y13	Z13	X14	Y14	Z14	X15	Y15	Z15	X16	Y16	Z16	X17	Y17	Z17	X18	Y18	Z18	X19	Y19	Z19	X20	Y20	Z20	X21	Y21	Z21	X22	Y22	Z22	X23	Y23	Z23	X24	Y24	Z24	X25	Y25	Z25	X26	Y26	Z26	X27	Y27	Z27	X28	Y28	Z28	X29	Y29	Z29	X30	Y30	Z30	X31	Y31	Z31	X32	Y32	Z32	X33	Y33	Z33	

2251	15	2291.109362546588	963.1271848792209	878.8928902787162	1977.426855473559	441.9910279853027	953.1594800465898	2003.822330671443	419.2716063839125	908.2650438894675	2025.479884363325	458.0017207080364	951.5353782831379	2250.300204665219	1040.916653003751	847.7590493213884	2094.774657452774	253.0801913973778	1011.368389361447	2085.989622996849	272.9722334609986	891.4801436621972	2134.172473641749	1032.384945755758	966.0727840426398	2147.586949669636	432.496173909345	895.4504595845656	2129.375537974476	476.8367066081618	923.2151200076541	2215.196675780154	472.3393419484095	877.1600251964269	2198.744954733061	515.2689646855092	905.070708293396	2433.539946562668	670.9387236568244	829.5573547124487	2383.666396626091	624.4480961815407	855.3498402328505	2353.010904502828	745.4085349088892	816.4799003641401	2306.303962141833	702.78371699914	842.7802287091122	2294.752214928489	961.8863833101292	1155.514558116723	1957.236140600472	82.99413416201696	1056.935241957165	1759.004699748421	104.5156461944665	1045.892911530871	1783.696047663695	110.9985972359129	1083.818077518427	1787.947244186183	146.1948043379349	1046.877747904024	2257.260635631922	1029.741276715388	1183.154922317011	1966.099175827817	37.91357577636484	1005.638096331671	1937.131680169232	42.98360086542375	1121.068766435094	2135.488987212531	1030.450840691463	1070.78431210836	1905.465560923507	206.1649702179737	1104.082660354687	1877.542897221918	238.3692824019421	1075.72998324264	1954.407717300719	271.7203925241461	1127.233827811175	1921.190488430986	302.164183649651	1099.292004411602	2141.517834147984	569.8932084438641	1169.009829126416	2083.862388534635	578.5935437034617	1124.279529864648	2142.322757730296	678.4598104494348	1183.230127941938	2088.962828433199	687.6784806819054	1140.32235413461	
2252	15.00666666666667	2293.167468564206	969.326909549367	880.3762297649752	1996.184692193915	412.2165235276969	956.4997735774986	2024.156117893435	392.2192541218046	911.1817174460825	2042.69138665937	432.4971878846843	954.5220067932052	2252.289139376051	1046.615622002051	848.0487737228492	2130.239746307403	233.5505215224878	1012.043398750772	2118.799502659995	253.6932441391702	892.4353715028344	2136.061502116046	1037.326825736558	966.6661471008701	2166.696213880406	417.6413901228164	897.5701162291623	2144.97841099109	460.2569826901881	925.6957327496923	2230.787292254244	463.1255641561976	879.2463600812747	2210.995517600978	504.4286107378659	907.5267229418237	2440.346323943119	682.8043010749193	830.8106063507348	2391.236975353084	635.0497121142803	855.6573172456254	2358.178755031534	755.2980508146719	816.8017048167449	2312.271789349808	711.5840052388319	842.5328679913119	2297.163904653065	964.1199748059597	1156.075526882165	1932.644424242464	83.79040587872589	1058.875571704624	1736.802903376459	118.1881657533152	1047.91544888519	1761.724993529898	122.1254205865742	1085.98252448964	1768.232557855536	157.6717399233297	1049.717143727773	2262.232118888136	1032.06853533834	1182.449572937462	1937.595063812179	38.86534432905497	1006.181024428443	1909.376142353474	43.5954643149032	1121.859445297617	2138.41437666105	1033.754511129637	1071.488678788008	1884.330853848044	214.3567498831897	1106.781606885893	1856.822571225412	246.1307369482296	1077.532853922759	1933.387680723698	280.1927597269827	1129.249089589094	1900.270011966413	310.225487383847	1100.560974996566	2126.382839565166	577.1705408684907	1169.001645817444	2069.568364911776	588.8405392502458	1123.782571190411	2132.843008027578	685.5111136471634	1182.939874814677	2080.497560883412	697.4359252595754	1139.345850773815	
2253	15.01333333333333	2295.544585913256	975.6848572717107	882.1519079226014	2017.178077472254	382.124150721554	959.7866616872863	2046.446042561822	364.9413299970357	914.0384787620167	2061.767993541696	406.4906411361624	957.5120939939869	2254.31869121919	1052.608245654688	848.251824516894	2166.939410702875	215.1144339857974	1012.407858213296	2152.768000391892	235.2122880892787	893.1445734540733	2138.14703733626	1042.31314648545	967.2990761901395	2186.625300066465	402.4744000928179	899.5735967906895	2161.650679258637	443.0610401012721	928.171280144931	2246.700659336727	453.3034307264686	881.2586276791214	2223.819538916991	492.6779374953902	910.0224789949069	2446.303605577315	693.7489833779434	832.2402059637427	2397.787548483615	644.9706832127708	856.1549929751149	2362.84250667471	764.5939420067227	817.3259811927472	2317.577758626641	720.0107213347619	842.4950328170204	2299.868018886387	966.7035606000734	1156.432337106798	1909.06005580836	85.10032137931769	1061.073088553544	1716.488512733894	133.0665248418261	1050.405037329824	1741.539026861876	134.3641523196711	1088.564977666487	1750.475156314086	170.0273272610137	1052.938541985362	2267.747222597398	1034.825559862031	1181.447804093945	1909.988656697583	40.50050386166268	1007.070502889121	1882.407173043395	44.92160336001076	1122.995916827786	2141.569901387728	1037.119081393909	1072.210282888497	1864.67725480422	223.0184310467343	1109.753945931849	1837.488835019924	254.2258409771269	1079.560833656747	1913.667289131502	289.3156620832844	1131.418814690117	1880.560489497158	318.7984095572392	1101.930729219149	2112.131204517269	585.3238221676723	1168.863299530541	2056.247218205345	599.8692623609097	1123.204314504117	2124.158153905896	693.1774582416656	1182.679129195876	2072.916341701315	707.7087622170603	1138.457382045887	
2254	15.02	2298.153660515343	982.1159496949415	884.1170196819993	2040.409549730109	351.9631042593296	962.9508707345869	2070.664096569128	337.6470815179447	916.7682264665622	2082.731072746123	380.1932234729553	960.4194540466918	2256.321923558184	1058.834744248364	848.3752729850611	2204.756298835699	197.9401831018509	1012.436077950513	2187.747081262995	217.661366133369	893.574947454544	2140.378663020746	1047.259857600653	968.0107345515793	2207.337578713194	387.1146114543686	901.4038089296564	2179.407141375086	425.3877482270003	930.598307551991	2262.928711282015	442.9352447322944	883.1399235380973	2237.262006159483	480.103282897818	912.5248893697827	2451.41252617068	703.5678210576757	833.8416062945361	2403.313547370178	653.9877108729953	856.8564959331093	2366.979127615406	773.1212659330105	818.1238351378018	2322.189722832945	727.8682274176902	842.73794421332	2302.794461704921	969.5712753007778	1156.527875636432	1886.463710893459	87.14514184054998	1063.499408782861	1698.033159224674	149.024339826679	1053.199955603221	1723.081001793126	147.6857535556734	1091.411065399753	1734.570929475364	183.1901865486565	1056.367192425899	2273.673631866487	1037.942531287737	1180.169636279593	1883.398754650261	42.96981138721951	1008.343053639746	1856.260119389726	47.2263689679424	1124.463113980182	2144.870702360801	1040.549785442489	1072.994538222149	1846.451613576906	232.1188043963894	1112.860969730612	1819.514976483685	262.6680105197616	1081.704228002041	1895.249950509726	298.9980675368527	1133.63787794479	1862.113112818893	327.8381364485888	1103.317179226453	2098.886613910861	594.1471650169435	1168.588746185621	2043.999013490392	611.4258185352797	1122.549973155751	2116.28464192847	701.2808181819706	1182.447128712175	2066.205825367143	718.2854788037156	1137.675615862572	
2255	15.02666666666667	2300.895670465554	988.5123902118444	886.1558103549323	2065.836044547777	321.9798524106297	965.9197725209967	2096.744991860747	310.5523455681979	919.2987759549646	2105.557360534089	353.8204151008825	963.1573990435367	2258.249894465734	1065.198550304696	848.4344792976777	2243.53413346046	182.1861821850264	1012.103597695928	2223.572449422844	201.1804231177491	893.6919502325087	2142.703120579547	1052.089213456233	968.8194085929686	2228.767874130205	371.6865224051251	903.0081806686686	2198.222169637874	407.3887510620726	932.9308771443916	2279.442798254995	432.0950209627636	884.832586296739	2251.332730966355	466.8097879383079	914.9886633467552	2455.642535714406	712.0688729379171	835.5967414752713	2407.787897669731	661.8938570619094	857.7689776679368	2370.538179075645	780.7080171858809	819.2467504806881	2326.05566519991	734.9667963530417	843.319989058319	2305.856004608321	972.6384008074706	1156.336009758171	1864.788707168952	90.16443646263015	1066.119731786716	1681.307801306807	165.9128351491039	1056.064348652153	1706.193924086597	162.0459214062815	1094.303104526747	1720.310456085336	197.0902417073252	1059.772814956063	2279.837096915018	1041.312168631936	1178.659333844136	1857.906916566608	46.42571597281086	1010.019147593739	1830.935631726447	50.78853565588187	1126.225457367672	2148.231371505449	1044.049008567087	1073.869308579217	1829.534451032037	241.6651456841445	1115.939235911834	1802.823932427096	271.517896019968	1083.827606238882	1878.096370819791	309.1651343247546	1135.789282903483	1844.94880365464	337.3281487164739	1104.622204810224	2086.767373174521	603.3946408219249	1168.191404538055	2032.919698753611	623.2215240526585	1121.835507015497	2109.232998097229	709.6164435866557	1182.246533258885	2060.343607080437	728.9314052434495	1137.014900628918	
2256	15.03333333333333	2303.664197547351	994.7487868993404	888.1506167261944	2093.371584289639	292.4216201469837	968.6178257074514	2124.590935046119	283.8830337531636	921.5550006360903	2130.179961700776	327.5936017169192	965.6422194085151	2260.067803295031	1071.568035194519	848.4496348347079	2283.072155400134	168.0070687590988	1011.389940306608	2260.065095295713	185.9228297936261	893.4626254520809	2145.06636276803	1056.733433830371	969.7215296181171	2250.828916228267	356.3195072373555	904.3411605002215	2218.033638599977	389.2269239611028	935.1188494885856	2296.199154438782	420.8663853688366	886.2815010193862	2266.008428338789	452.9176038969389	917.3543213267336	2458.936488494734	719.0764946276939	837.470555606938	2411.164223325934	668.5041350908385	858.8901461507436	2373.447741046528	787.1876309614006	820.7133981928889	2329.108384812012	741.1278691651876	844.2757873555654	2308.955255135485	975.8100685346665	1155.863202972297	1843.926583780367	94.39409238189165	1068.892263811905	1666.092761919333	183.5708364969433	1058.707902705234	1690.634179191775	177.3867192043992	1096.977806906806	1707.396515559347	211.6621407602031	1062.887611592636	2286.036912957578	1044.808421052018	1176.981307285633	1833.549295137367	51.011850020393	1012.096932257421	1806.401027743436	55.87805370309348	1128.227073429508	2151.571658669138	1047.613464936876	1074.842918115444	1813.754029649159	251.6999352599107	1118.814258504987	1787.299920179126	280.8751404598059	1085.779931009814	1862.13292922477	319.7605454015907	1137.75327063863	1829.0614452001	347.277570890295	1105.740827758093	2075.886021855209	612.791392098236	1167.706016537142	2023.098300546503	634.9452549227253	1121.092604137986	2103.015843174715	717.9625571042657	1182.08655116731	2055.304759609387	739.3983316191888	1136.491055127852	
